<svg width="11" height="13" viewBox="0 0 12 14" fill="none" xmlns="http://www.w3.org/2000/svg">
<path d="M2.16 1.65002H9.83C10.47 1.65002 10.99 2.17002 10.99 2.81002V4.09002C10.99 4.56002 10.7 5.14002 10.41 5.43002L7.91 7.64002C7.56 7.93002 7.33 8.51002 7.33 8.98002V11.48C7.33 11.83 7.1 12.29 6.81 12.47L6 12.98C5.24 13.45 4.2 12.92 4.2 11.99V8.91002C4.2 8.50002 3.97 7.98002 3.73 7.69002L1.52 5.36002C1.23 5.08002 1 4.55002 1 4.20002V2.87002C1 2.17002 1.52 1.65002 2.16 1.65002Z" stroke="#393F52" stroke-width="1" stroke-miterlimit="10" stroke-linecap="round" stroke-linejoin="round"/>
</svg>
