<svg width="7" height="12" viewBox="0 0 7 12" fill="none" xmlns="http://www.w3.org/2000/svg">
<mask id="path-1-inside-1_837_18579" fill="white">
<path d="M6.00002 11.78C5.87335 11.78 5.74669 11.7333 5.64669 11.6333L1.30002 7.28668C0.593353 6.58001 0.593353 5.42001 1.30002 4.71335L5.64669 0.36668C5.84002 0.173346 6.16002 0.173346 6.35335 0.36668C6.54669 0.560013 6.54669 0.880013 6.35335 1.07335L2.00669 5.42001C1.68669 5.74001 1.68669 6.26001 2.00669 6.58001L6.35335 10.9267C6.54669 11.12 6.54669 11.44 6.35335 11.6333C6.25335 11.7267 6.12669 11.78 6.00002 11.78Z"/>
</mask>
<path d="M5.64669 11.6333L6.35379 10.9262L5.64669 11.6333ZM1.30002 7.28668L0.592913 7.99379H0.592913L1.30002 7.28668ZM1.30002 4.71335L0.592913 4.00624L0.592913 4.00624L1.30002 4.71335ZM5.64669 0.36668L6.35379 1.07379V1.07379L5.64669 0.36668ZM6.35335 1.07335L5.64625 0.36624V0.36624L6.35335 1.07335ZM2.00669 5.42001L2.71379 6.12712L2.00669 5.42001ZM2.00669 6.58001L1.29958 7.28712H1.29958L2.00669 6.58001ZM6.35335 10.9267L7.06046 10.2196V10.2196L6.35335 10.9267ZM6.35335 11.6333L7.03567 12.3644L7.04827 12.3526L7.06046 12.3405L6.35335 11.6333ZM6.00002 10.78C6.12426 10.78 6.25637 10.8288 6.35379 10.9262L4.93958 12.3405C5.237 12.6379 5.62245 12.78 6.00002 12.78V10.78ZM6.35379 10.9262L2.00713 6.57957L0.592913 7.99379L4.93958 12.3405L6.35379 10.9262ZM2.00713 6.57957C1.69098 6.26343 1.69098 5.7366 2.00713 5.42045L0.592913 4.00624C-0.504278 5.10343 -0.504278 6.8966 0.592913 7.99379L2.00713 6.57957ZM2.00713 5.42045L6.35379 1.07379L4.93958 -0.340427L0.592913 4.00624L2.00713 5.42045ZM6.35379 1.07379C6.1566 1.27098 5.84344 1.27098 5.64625 1.07379L7.06046 -0.340427C6.4766 -0.924285 5.52344 -0.924285 4.93958 -0.340427L6.35379 1.07379ZM5.64625 1.07379C5.44905 0.876595 5.44905 0.563431 5.64625 0.36624L7.06046 1.78045C7.64432 1.1966 7.64432 0.243431 7.06046 -0.340427L5.64625 1.07379ZM5.64625 0.36624L1.29958 4.71291L2.71379 6.12712L7.06046 1.78045L5.64625 0.36624ZM1.29958 4.71291C0.589055 5.42343 0.589055 6.5766 1.29958 7.28712L2.71379 5.87291C2.78432 5.94343 2.78432 6.0566 2.71379 6.12712L1.29958 4.71291ZM1.29958 7.28712L5.64625 11.6338L7.06046 10.2196L2.71379 5.87291L1.29958 7.28712ZM5.64625 11.6338C5.44905 11.4366 5.44905 11.1234 5.64625 10.9262L7.06046 12.3405C7.64432 11.7566 7.64432 10.8034 7.06046 10.2196L5.64625 11.6338ZM5.67103 10.9023C5.73546 10.8422 5.84638 10.78 6.00002 10.78V12.78C6.40699 12.78 6.77124 12.6112 7.03567 12.3644L5.67103 10.9023Z" fill="#9CA0AD" mask="url(#path-1-inside-1_837_18579)"/>
</svg>
