<svg width="24" height="24" viewBox="0 0 24 24" fill="none" xmlns="http://www.w3.org/2000/svg">
<path d="M13.7309 3.50989L15.4909 7.02989C15.7309 7.51989 16.3709 7.98989 16.9109 8.07989L20.1009 8.60989C22.1409 8.94989 22.6209 10.4299 21.1509 11.8899L18.6709 14.3699C18.2509 14.7899 18.0209 15.5999 18.1509 16.1799L18.8609 19.2499C19.4209 21.6799 18.1309 22.6199 15.9809 21.3499L12.9909 19.5799C12.4509 19.2599 11.5609 19.2599 11.0109 19.5799L8.02089 21.3499C5.88089 22.6199 4.58089 21.6699 5.14089 19.2499L5.85089 16.1799C5.98089 15.5999 5.75089 14.7899 5.33089 14.3699L2.85089 11.8899C1.39089 10.4299 1.86089 8.94989 3.90089 8.60989L7.09089 8.07989C7.62089 7.98989 8.26089 7.51989 8.50089 7.02989L10.2609 3.50989C11.2209 1.59989 12.7809 1.59989 13.7309 3.50989Z" fill="#F79009"/>
</svg>
