<svg width="16" height="16" viewBox="0 0 16 16" fill="none" xmlns="http://www.w3.org/2000/svg">
<g clip-path="url(#clip0_572_22827)">
<mask id="path-1-inside-1_572_22827" fill="white">
<path d="M10 13.779C9.87335 13.779 9.74669 13.7324 9.64669 13.6324L5.30002 9.2857C4.59335 8.57904 4.59335 7.41904 5.30002 6.71237L9.64669 2.3657C9.84002 2.17237 10.16 2.17237 10.3534 2.3657C10.5467 2.55904 10.5467 2.87904 10.3534 3.07237L6.00669 7.41904C5.68669 7.73904 5.68669 8.25904 6.00669 8.57904L10.3534 12.9257C10.5467 13.119 10.5467 13.439 10.3534 13.6324C10.2534 13.7257 10.1267 13.779 10 13.779Z"/>
</mask>
<path d="M9.64669 13.6324L10.3538 12.9253L9.64669 13.6324ZM5.30002 9.2857L4.59291 9.99281H4.59291L5.30002 9.2857ZM5.30002 6.71237L4.59291 6.00526L4.59291 6.00526L5.30002 6.71237ZM9.64669 2.3657L10.3538 3.07281V3.07281L9.64669 2.3657ZM10.3534 3.07237L9.64625 2.36526V2.36526L10.3534 3.07237ZM6.00669 7.41904L6.71379 8.12614L6.00669 7.41904ZM6.00669 8.57904L5.29958 9.28614H5.29958L6.00669 8.57904ZM10.3534 12.9257L11.0605 12.2186V12.2186L10.3534 12.9257ZM10.3534 13.6324L11.0357 14.3634L11.0483 14.3517L11.0605 14.3395L10.3534 13.6324ZM10 12.779C10.1243 12.779 10.2564 12.8278 10.3538 12.9253L8.93958 14.3395C9.237 14.6369 9.62245 14.779 10 14.779V12.779ZM10.3538 12.9253L6.00713 8.5786L4.59291 9.99281L8.93958 14.3395L10.3538 12.9253ZM6.00713 8.5786C5.69098 8.26245 5.69098 7.73562 6.00713 7.41948L4.59291 6.00526C3.49572 7.10245 3.49572 8.89562 4.59291 9.99281L6.00713 8.5786ZM6.00713 7.41948L10.3538 3.07281L8.93958 1.6586L4.59291 6.00526L6.00713 7.41948ZM10.3538 3.07281C10.1566 3.27 9.84344 3.27 9.64625 3.07281L11.0605 1.6586C10.4766 1.07474 9.52344 1.07474 8.93958 1.6586L10.3538 3.07281ZM9.64625 3.07281C9.44905 2.87562 9.44905 2.56245 9.64625 2.36526L11.0605 3.77948C11.6443 3.19562 11.6443 2.24245 11.0605 1.6586L9.64625 3.07281ZM9.64625 2.36526L5.29958 6.71193L6.71379 8.12614L11.0605 3.77948L9.64625 2.36526ZM5.29958 6.71193C4.58906 7.42245 4.58906 8.57562 5.29958 9.28614L6.71379 7.87193C6.78432 7.94245 6.78432 8.05562 6.71379 8.12614L5.29958 6.71193ZM5.29958 9.28614L9.64625 13.6328L11.0605 12.2186L6.71379 7.87193L5.29958 9.28614ZM9.64625 13.6328C9.44905 13.4356 9.44905 13.1225 9.64625 12.9253L11.0605 14.3395C11.6443 13.7556 11.6443 12.8025 11.0605 12.2186L9.64625 13.6328ZM9.67103 12.9013C9.73546 12.8412 9.84638 12.779 10 12.779V14.779C10.407 14.779 10.7712 14.6102 11.0357 14.3634L9.67103 12.9013Z" fill="#9CA0AD" mask="url(#path-1-inside-1_572_22827)"/>
</g>
<defs>
<clipPath id="clip0_572_22827">
<rect width="16" height="16" fill="white"/>
</clipPath>
</defs>
</svg>
