<svg width="36" height="36" viewBox="0 0 36 36" fill="none" xmlns="http://www.w3.org/2000/svg">
<path d="M0.5 8C0.5 3.85786 3.85786 0.5 8 0.5H28C32.1421 0.5 35.5 3.85786 35.5 8V28C35.5 32.1421 32.1421 35.5 28 35.5H8C3.85786 35.5 0.5 32.1421 0.5 28V8Z" fill="white"/>
<path d="M0.5 8C0.5 3.85786 3.85786 0.5 8 0.5H28C32.1421 0.5 35.5 3.85786 35.5 8V28C35.5 32.1421 32.1421 35.5 28 35.5H8C3.85786 35.5 0.5 32.1421 0.5 28V8Z" stroke="#D0D3DB"/>
<path d="M12.1665 23.8333L23.8332 12.1667" stroke="#393F52" stroke-width="2" stroke-linecap="round" stroke-linejoin="round"/>
<path d="M23.8332 23.8333L12.1665 12.1667" stroke="#393F52" stroke-width="2" stroke-linecap="round" stroke-linejoin="round"/>
</svg>
