<svg width="32" height="32" viewBox="0 0 32 32" fill="none" xmlns="http://www.w3.org/2000/svg">
<path d="M29.2937 24.4393C29.2937 24.9193 29.187 25.4127 28.9603 25.8927C28.7337 26.3727 28.4403 26.826 28.0537 27.2527C27.4003 27.9727 26.6803 28.4927 25.867 28.826C25.067 29.1594 24.2003 29.3327 23.267 29.3327C21.907 29.3327 20.4537 29.0127 18.9203 28.3594C17.387 27.706 15.8537 26.826 14.3337 25.7194C12.8003 24.5994 11.347 23.3593 9.96033 21.986C8.58699 20.5993 7.34699 19.146 6.24033 17.626C5.14699 16.106 4.26699 14.586 3.62699 13.0793C2.98699 11.5593 2.66699 10.106 2.66699 8.71935C2.66699 7.81268 2.82699 6.94602 3.14699 6.14602C3.46699 5.33268 3.97366 4.58602 4.68033 3.91935C5.53366 3.07935 6.46699 2.66602 7.45366 2.66602C7.82699 2.66602 8.20033 2.74602 8.53366 2.90602C8.88033 3.06602 9.18699 3.30602 9.42699 3.65268L12.5203 8.01268C12.7603 8.34602 12.9337 8.65268 13.0537 8.94602C13.1737 9.22602 13.2403 9.50602 13.2403 9.75935C13.2403 10.0793 13.147 10.3993 12.9603 10.706C12.787 11.0127 12.5337 11.3327 12.2137 11.6527L11.2003 12.706C11.0537 12.8527 10.987 13.026 10.987 13.2393C10.987 13.346 11.0003 13.4393 11.027 13.546C11.067 13.6527 11.107 13.7327 11.1337 13.8127C11.3737 14.2527 11.787 14.826 12.3737 15.5193C12.9737 16.2127 13.6137 16.9193 14.307 17.626C15.027 18.3327 15.7203 18.986 16.427 19.586C17.1203 20.1727 17.6937 20.5727 18.147 20.8127C18.2137 20.8393 18.2937 20.8793 18.387 20.9193C18.4937 20.9593 18.6003 20.9727 18.7203 20.9727C18.947 20.9727 19.1203 20.8927 19.267 20.746L20.2803 19.746C20.6137 19.4127 20.9337 19.1593 21.2403 18.9993C21.547 18.8127 21.8537 18.7193 22.187 18.7193C22.4403 18.7193 22.707 18.7727 23.0003 18.8927C23.2937 19.0127 23.6003 19.186 23.9337 19.4127L28.347 22.546C28.6937 22.786 28.9337 23.066 29.0803 23.3993C29.2137 23.7327 29.2937 24.066 29.2937 24.4393Z" stroke="#08A70A" stroke-width="1.5" stroke-miterlimit="10"/>
</svg>
