<svg width="24" height="24" viewBox="0 0 24 24" fill="none" xmlns="http://www.w3.org/2000/svg">
<path d="M16.5217 5.64999L13.4217 3.24999C13.0217 2.84999 12.1217 2.64999 11.5217 2.64999H7.72169C6.52169 2.64999 5.22169 3.54999 4.92169 4.74999L2.52169 12.05C2.02169 13.45 2.92169 14.65 4.42169 14.65H8.42169C9.02169 14.65 9.52169 15.15 9.42169 15.85L8.92169 19.05C8.72169 19.95 9.32169 20.95 10.2217 21.25C11.0217 21.55 12.0217 21.15 12.4217 20.55L16.5217 14.45" stroke="white" stroke-width="1.5" stroke-miterlimit="10"/>
<path d="M21.6211 5.65V15.45C21.6211 16.85 21.0211 17.35 19.6211 17.35H18.6211C17.2211 17.35 16.6211 16.85 16.6211 15.45V5.65C16.6211 4.25 17.2211 3.75 18.6211 3.75H19.6211C21.0211 3.75 21.6211 4.25 21.6211 5.65Z" stroke="white" stroke-width="1.5" stroke-linecap="round" stroke-linejoin="round"/>
</svg>
