<svg width="80" height="81" viewBox="0 0 80 81" fill="none" xmlns="http://www.w3.org/2000/svg">
<path d="M28.5669 50.9611L50.3668 29.1612" stroke="white" stroke-width="4" stroke-linecap="round" stroke-linejoin="round"/>
<path d="M29.9333 34.6278C32.1977 34.6278 34.0332 32.7923 34.0332 30.5279C34.0332 28.2635 32.1977 26.4279 29.9333 26.4279C27.6689 26.4279 25.8333 28.2635 25.8333 30.5279C25.8333 32.7923 27.6689 34.6278 29.9333 34.6278Z" stroke="white" stroke-width="4" stroke-linecap="round" stroke-linejoin="round"/>
<path d="M51.7335 53.6945C53.9978 53.6945 55.8335 51.8588 55.8335 49.5944C55.8335 47.3301 53.9978 45.4945 51.7335 45.4945C49.4691 45.4945 47.6335 47.3301 47.6335 49.5944C47.6335 51.8588 49.4691 53.6945 51.7335 53.6945Z" stroke="white" stroke-width="4" stroke-linecap="round" stroke-linejoin="round"/>
<path d="M40.0001 73.3945C58.4096 73.3945 73.3334 58.4707 73.3334 40.0612C73.3334 21.6517 58.4096 6.72784 40.0001 6.72784C21.5906 6.72784 6.66675 21.6517 6.66675 40.0612C6.66675 58.4707 21.5906 73.3945 40.0001 73.3945Z" stroke="white" stroke-width="4" stroke-linecap="round" stroke-linejoin="round"/>
</svg>
