<svg width="24" height="24" viewBox="0 0 24 24" fill="none" xmlns="http://www.w3.org/2000/svg">
<path d="M7.48047 18.35L10.5805 20.75C10.9805 21.15 11.8805 21.35 12.4805 21.35H16.2805C17.4805 21.35 18.7805 20.45 19.0805 19.25L21.4805 11.95C21.9805 10.55 21.0805 9.35 19.5805 9.35H15.5805C14.9805 9.35 14.4805 8.85 14.5805 8.15L15.0805 4.95C15.2805 4.05 14.6805 3.05 13.7805 2.75C12.9805 2.45 11.9805 2.85 11.5805 3.45L7.48047 9.55" stroke="white" stroke-width="1.5" stroke-miterlimit="10"/>
<path d="M2.37891 18.35V8.54999C2.37891 7.14999 2.97891 6.64999 4.37891 6.64999H5.37891C6.77891 6.64999 7.37891 7.14999 7.37891 8.54999V18.35C7.37891 19.75 6.77891 20.25 5.37891 20.25H4.37891C2.97891 20.25 2.37891 19.75 2.37891 18.35Z" stroke="white" stroke-width="1.5" stroke-linecap="round" stroke-linejoin="round"/>
</svg>
