<svg width="24" height="24" viewBox="0 0 24 24" fill="none" xmlns="http://www.w3.org/2000/svg">
<path d="M12.0009 13.4304C13.724 13.4304 15.1209 12.0336 15.1209 10.3104C15.1209 8.5873 13.724 7.19043 12.0009 7.19043C10.2777 7.19043 8.88086 8.5873 8.88086 10.3104C8.88086 12.0336 10.2777 13.4304 12.0009 13.4304Z" stroke="#6B6F7D" stroke-width="1.5"/>
<path d="M3.61971 8.49C5.58971 -0.169998 18.4197 -0.159997 20.3797 8.5C21.5297 13.58 18.3697 17.88 15.5997 20.54C13.5897 22.48 10.4097 22.48 8.38971 20.54C5.62971 17.88 2.46971 13.57 3.61971 8.49Z" stroke="#6B6F7D" stroke-width="1.5"/>
</svg>

<svg width="32" height="32" viewBox="0 0 32 32" fill="none" xmlns="http://www.w3.org/2000/svg">
<path d="M15.9998 17.9059C18.2973 17.9059 20.1598 16.0434 20.1598 13.7459C20.1598 11.4484 18.2973 9.58594 15.9998 9.58594C13.7023 9.58594 11.8398 11.4484 11.8398 13.7459C11.8398 16.0434 13.7023 17.9059 15.9998 17.9059Z" stroke="#08A70A" stroke-width="1.5"/>
<path d="M4.8266 11.3194C7.45327 -0.227315 24.5599 -0.213981 27.1733 11.3327C28.7066 18.106 24.4933 23.8394 20.7999 27.386C18.1199 29.9727 13.8799 29.9727 11.1866 27.386C7.5066 23.8394 3.29327 18.0927 4.8266 11.3194Z" stroke="#08A70A" stroke-width="1.5"/>
</svg>
