<svg width="32" height="32" viewBox="0 0 32 32" fill="none" xmlns="http://www.w3.org/2000/svg">
<path d="M27.493 11.6003C26.1063 5.42699 20.7197 2.66699 15.9997 2.66699C15.9997 2.66699 15.9997 2.66699 15.9863 2.66699C11.2797 2.66699 5.90633 5.42699 4.50633 11.587C2.933 18.467 7.14633 24.2937 10.9597 27.9737C12.373 29.3337 14.1863 30.0137 15.9997 30.0137C17.813 30.0137 19.6263 29.3337 21.0263 27.9737C24.8397 24.2937 29.053 18.4803 27.493 11.6003ZM19.6663 15.667H16.9997V18.3337C16.9997 18.8803 16.5463 19.3337 15.9997 19.3337C15.453 19.3337 14.9997 18.8803 14.9997 18.3337V15.667H12.333C11.7863 15.667 11.333 15.2137 11.333 14.667C11.333 14.1203 11.7863 13.667 12.333 13.667H14.9997V11.0003C14.9997 10.4537 15.453 10.0003 15.9997 10.0003C16.5463 10.0003 16.9997 10.4537 16.9997 11.0003V13.667H19.6663C20.213 13.667 20.6663 14.1203 20.6663 14.667C20.6663 15.2137 20.213 15.667 19.6663 15.667Z" fill="#393F52"/>
</svg>
