<?xml version="1.0" encoding="UTF-8"?>
<!DOCTYPE svg PUBLIC "-//W3C//DTD SVG 1.1//EN" "http://www.w3.org/Graphics/SVG/1.1/DTD/svg11.dtd">
<svg xmlns="http://www.w3.org/2000/svg" version="1.1" width="200px" height="200px" style="shape-rendering:geometricPrecision; text-rendering:geometricPrecision; image-rendering:optimizeQuality; fill-rule:evenodd; clip-rule:evenodd" xmlns:xlink="http://www.w3.org/1999/xlink">
<g><path style="opacity:0.992" fill="#ef625e" d="M 140.5,27.5 C 135.611,36.9399 130.445,46.2733 125,55.5C 123.644,56.3802 122.144,56.7135 120.5,56.5C 113.913,54.5199 107.246,52.8532 100.5,51.5C 99.5514,50.8476 98.3847,50.5143 97,50.5C 92.9848,50.542 89.4848,51.542 86.5,53.5C 73.1514,57.1744 62.818,64.8411 55.5,76.5C 47.5714,70.1909 38.9047,64.8575 29.5,60.5C 33.7274,58.7195 38.3941,57.8862 43.5,58C 57.347,40.8551 75.347,31.5218 97.5,30C 111.823,28.9009 126.156,28.0675 140.5,27.5 Z"/></g>
<g><path style="opacity:0.993" fill="#da5856" d="M 140.5,27.5 C 150.282,44.0653 158.782,61.3987 166,79.5C 167.771,86.3979 168.938,93.3979 169.5,100.5C 168.938,107.602 167.771,114.602 166,121.5C 165.205,123.901 164.038,126.068 162.5,128C 165.219,131.158 167.386,134.658 169,138.5C 169.74,139.749 169.573,140.749 168.5,141.5C 160.204,135.679 151.537,130.346 142.5,125.5C 143.421,120.986 144.921,116.652 147,112.5C 148.919,100.248 147.253,88.5818 142,77.5C 139.002,74.1692 136.502,70.5025 134.5,66.5C 131.905,62.8743 128.572,60.2076 124.5,58.5C 122.847,58.3404 121.514,57.6737 120.5,56.5C 122.144,56.7135 123.644,56.3802 125,55.5C 130.445,46.2733 135.611,36.9399 140.5,27.5 Z"/></g>
<g><path style="opacity:0.031" fill="#9d403e" d="M 100.5,51.5 C 95.759,51.7349 91.0923,52.4016 86.5,53.5C 89.4848,51.542 92.9848,50.542 97,50.5C 98.3847,50.5143 99.5514,50.8476 100.5,51.5 Z"/></g>
<g><path style="opacity:0.008" fill="#a03f3f" d="M 124.5,58.5 C 128.572,60.2076 131.905,62.8743 134.5,66.5C 130.793,64.3115 127.46,61.6448 124.5,58.5 Z"/></g>
<g><path style="opacity:0.989" fill="#214c67" d="M 29.5,60.5 C 38.9047,64.8575 47.5714,70.1909 55.5,76.5C 51.0385,85.6419 49.2052,95.3085 50,105.5C 50.835,113.164 52.835,120.498 56,127.5C 60.3181,135.832 64.4848,144.166 68.5,152.5C 66.3616,158.155 63.5283,163.489 60,168.5C 59.1237,170.635 57.6237,171.969 55.5,172.5C 45.8878,154.709 37.3878,136.376 30,117.5C 29.3333,107.167 29.3333,96.8333 30,86.5C 31.3787,81.9101 32.8787,77.4101 34.5,73C 33.5598,69.826 32.0598,66.9926 30,64.5C 29.51,63.2068 29.3433,61.8734 29.5,60.5 Z"/></g>
<g><path style="opacity:0.998" fill="#2eb599" d="M 88.5,65.5 C 92.0188,66.3476 95.3521,67.6809 98.5,69.5C 113.041,66.6324 122.707,72.299 127.5,86.5C 134.653,89.6159 135.32,93.7826 129.5,99C 132.845,108.893 130.512,117.226 122.5,124C 119.513,126.082 116.179,127.249 112.5,127.5C 112.238,130.691 110.905,133.358 108.5,135.5C 105.727,134.03 102.894,132.697 100,131.5C 85.135,134.656 75.635,128.989 71.5,114.5C 69.0824,113.543 66.9157,112.209 65,110.5C 64.3333,109.5 64.3333,108.5 65,107.5C 66.5555,105.557 67.7221,103.39 68.5,101C 64.7215,86.5646 70.0548,77.2312 84.5,73C 86.1202,70.6274 87.4536,68.1274 88.5,65.5 Z"/></g>
<g><path style="opacity:1" fill="#153d56" d="M 142.5,125.5 C 151.537,130.346 160.204,135.679 168.5,141.5C 164.278,141.263 160.111,141.596 156,142.5C 145.918,154.636 133.418,163.469 118.5,169C 97.5203,173.26 76.5203,174.427 55.5,172.5C 57.6237,171.969 59.1237,170.635 60,168.5C 63.5283,163.489 66.3616,158.155 68.5,152.5C 85.0687,152.592 101.402,150.759 117.5,147C 127.935,142.05 136.268,134.883 142.5,125.5 Z"/></g>
</svg>
