<svg width="24" height="24" viewBox="0 0 24 24" fill="none" xmlns="http://www.w3.org/2000/svg">
<path d="M8.73242 7.36615L15.2911 10.6455" stroke="#393F52" stroke-width="1.5" stroke-linecap="round" stroke-linejoin="round"/>
<path d="M8.7207 16.6394L15.2516 13.3739" stroke="#393F52" stroke-width="1.5" stroke-linecap="round" stroke-linejoin="round"/>
<path d="M6 9C7.65685 9 9 7.65685 9 6C9 4.34315 7.65685 3 6 3C4.34315 3 3 4.34315 3 6C3 7.65685 4.34315 9 6 9Z" stroke="#393F52" stroke-width="1.5" stroke-linecap="round" stroke-linejoin="round"/>
<path d="M18 15C19.6569 15 21 13.6569 21 12C21 10.3431 19.6569 9 18 9C16.3431 9 15 10.3431 15 12C15 13.6569 16.3431 15 18 15Z" stroke="#393F52" stroke-width="1.5" stroke-linecap="round" stroke-linejoin="round"/>
<path d="M6 21C7.65685 21 9 19.6569 9 18C9 16.3431 7.65685 15 6 15C4.34315 15 3 16.3431 3 18C3 19.6569 4.34315 21 6 21Z" stroke="#393F52" stroke-width="1.5" stroke-linecap="round" stroke-linejoin="round"/>
</svg>
