<svg width="16" height="16" viewBox="0 0 16 16" fill="none" xmlns="http://www.w3.org/2000/svg">
<path d="M14.333 10.3333C14.5197 10.3333 14.6663 10.48 14.6663 10.6666V11.3333C14.6663 12.44 13.773 13.3333 12.6663 13.3333C12.6663 12.2333 11.7663 11.3333 10.6663 11.3333C9.56634 11.3333 8.66634 12.2333 8.66634 13.3333H7.33301C7.33301 12.2333 6.43301 11.3333 5.33301 11.3333C4.23301 11.3333 3.33301 12.2333 3.33301 13.3333C2.22634 13.3333 1.33301 12.44 1.33301 11.3333V9.99998C1.33301 9.63331 1.63301 9.33331 1.99967 9.33331H8.33301C9.25301 9.33331 9.99967 8.58665 9.99967 7.66665V3.99998C9.99967 3.63331 10.2997 3.33331 10.6663 3.33331H11.2263C11.7063 3.33331 12.1463 3.59331 12.3863 4.00665L12.813 4.75331C12.873 4.85998 12.793 4.99998 12.6663 4.99998C11.7463 4.99998 10.9997 5.74665 10.9997 6.66665V8.66665C10.9997 9.58665 11.7463 10.3333 12.6663 10.3333H14.333Z" fill="#069D6E"/>
<path d="M5.33333 14.6667C6.06971 14.6667 6.66667 14.0697 6.66667 13.3333C6.66667 12.597 6.06971 12 5.33333 12C4.59695 12 4 12.597 4 13.3333C4 14.0697 4.59695 14.6667 5.33333 14.6667Z" fill="#069D6E"/>
<path d="M10.6663 14.6667C11.4027 14.6667 11.9997 14.0697 11.9997 13.3333C11.9997 12.597 11.4027 12 10.6663 12C9.92996 12 9.33301 12.597 9.33301 13.3333C9.33301 14.0697 9.92996 14.6667 10.6663 14.6667Z" fill="#069D6E"/>
<path d="M14.6667 8.35333V9.33333H12.6667C12.3 9.33333 12 9.03333 12 8.66667V6.66667C12 6.3 12.3 6 12.6667 6H13.5267L14.4933 7.69333C14.6067 7.89333 14.6667 8.12 14.6667 8.35333Z" fill="#069D6E"/>
<path d="M8.72065 1.33331H3.79398C2.60065 1.33331 1.60065 2.18665 1.38065 3.31998H4.29398C4.54732 3.31998 4.74732 3.52665 4.74732 3.77998C4.74732 4.03331 4.54732 4.23331 4.29398 4.23331H1.33398V5.15331H3.06732C3.32065 5.15331 3.52732 5.35998 3.52732 5.61331C3.52732 5.86665 3.32065 6.06665 3.06732 6.06665H1.33398V6.98665H1.84732C2.10065 6.98665 2.30732 7.19331 2.30732 7.44665C2.30732 7.69998 2.10065 7.89998 1.84732 7.89998H1.33398V8.05331C1.33398 8.41998 1.63398 8.71998 2.00065 8.71998H8.10065C8.78065 8.71998 9.33398 8.16665 9.33398 7.48665V1.94665C9.33398 1.60665 9.06065 1.33331 8.72065 1.33331Z" fill="#069D6E"/>
<path d="M1.38033 3.32001H1.28033H0.626992C0.373659 3.32001 0.166992 3.52667 0.166992 3.78001C0.166992 4.03334 0.373659 4.23334 0.626992 4.23334H1.23366H1.33366V3.79334C1.33366 3.63334 1.35366 3.47334 1.38033 3.32001Z" fill="#069D6E"/>
<path d="M1.23366 5.15332H0.626992C0.373659 5.15332 0.166992 5.35999 0.166992 5.61332C0.166992 5.86665 0.373659 6.06665 0.626992 6.06665H1.23366H1.33366V5.15332H1.23366Z" fill="#069D6E"/>
<path d="M1.23366 6.98663H0.626992C0.373659 6.98663 0.166992 7.1933 0.166992 7.44663C0.166992 7.69997 0.373659 7.89997 0.626992 7.89997H1.23366H1.33366V6.98663H1.23366Z" fill="#069D6E"/>
</svg>
