<svg width="10" height="22" viewBox="0 0 10 22" fill="none" xmlns="http://www.w3.org/2000/svg">
<mask id="path-1-inside-1_575_7314" fill="white">
<path d="M4.66691e-05 0.439998L8.69338 9.13333C9.72005 10.16 9.72005 11.84 8.69338 12.8667L4.48227e-05 21.56"/>
</mask>
<path d="M2.12137 -1.68132C0.949794 -2.85289 -0.9497 -2.85289 -2.12127 -1.68132C-3.29285 -0.50975 -3.29285 1.38974 -2.12127 2.56132L2.12137 -1.68132ZM8.69338 9.13333L6.57206 11.2547L8.69338 9.13333ZM8.69338 12.8667L6.57206 10.7453L8.69338 12.8667ZM-2.12127 19.4387C-3.29285 20.6102 -3.29285 22.5097 -2.12128 23.6813C-0.949703 24.8529 0.949792 24.8529 2.12136 23.6813L-2.12127 19.4387ZM-2.12127 2.56132L6.57206 11.2547L10.8147 7.01201L2.12137 -1.68132L-2.12127 2.56132ZM6.57206 11.2547C6.49543 11.178 6.46338 11.0794 6.46338 11C6.46338 10.9206 6.49543 10.822 6.57206 10.7453L10.8147 14.988C13.0129 12.7897 13.0129 9.21025 10.8147 7.01201L6.57206 11.2547ZM6.57206 10.7453L-2.12127 19.4387L2.12136 23.6813L10.8147 14.988L6.57206 10.7453Z" fill="#393F52" mask="url(#path-1-inside-1_575_7314)"/>
</svg>
