<svg width="10" height="22" viewBox="0 0 10 22" fill="none" xmlns="http://www.w3.org/2000/svg">
<mask id="path-1-inside-1_3425_14067" fill="white">
<path d="M9.99849 21.56L1.30516 12.8667C0.27849 11.84 0.27849 10.16 1.30516 9.13334L9.99849 0.440002"/>
</mask>
<path d="M7.87717 23.6813C9.04874 24.8529 10.9482 24.8529 12.1198 23.6813C13.2914 22.5097 13.2914 20.6103 12.1198 19.4387L7.87717 23.6813ZM1.30516 12.8667L3.42648 10.7453L1.30516 12.8667ZM1.30516 9.13334L3.42648 11.2547L1.30516 9.13334ZM12.1198 2.56132C13.2914 1.38975 13.2914 -0.509745 12.1198 -1.68132C10.9482 -2.85289 9.04874 -2.85289 7.87717 -1.68132L12.1198 2.56132ZM12.1198 19.4387L3.42648 10.7453L-0.816164 14.988L7.87717 23.6813L12.1198 19.4387ZM3.42648 10.7453C3.5031 10.822 3.53516 10.9206 3.53516 11C3.53516 11.0794 3.5031 11.178 3.42648 11.2547L-0.816164 7.01202C-3.0144 9.21025 -3.0144 12.7897 -0.816164 14.988L3.42648 10.7453ZM3.42648 11.2547L12.1198 2.56132L7.87717 -1.68132L-0.816164 7.01202L3.42648 11.2547Z" fill="#393F52" mask="url(#path-1-inside-1_3425_14067)"/>
</svg>
