<svg width="41" height="41" viewBox="0 0 41 41" fill="none" xmlns="http://www.w3.org/2000/svg">
<mask id="path-1-inside-1_112_115" fill="white">
<path fill-rule="evenodd" clip-rule="evenodd" d="M33.4968 0.508759C30.7448 0.508759 28.4176 2.40277 27.7452 4.94559L27.0048 4.60158C26.8727 4.54018 26.7288 4.50836 26.5832 4.50836C26.4376 4.50836 26.2937 4.54018 26.1616 4.60158L13.9164 10.29L1.6712 4.60198C1.51883 4.53122 1.35109 4.49999 1.18347 4.51117C1.01584 4.52234 0.853736 4.57557 0.712112 4.66594C0.570487 4.7563 0.453911 4.88089 0.373146 5.0282C0.29238 5.17551 0.250028 5.34079 0.25 5.50879V33.6238C0.249956 33.8144 0.304418 34.0011 0.406967 34.1619C0.509516 34.3226 0.655877 34.4507 0.8288 34.531L13.4952 40.4146C13.6273 40.476 13.7712 40.5078 13.9168 40.5078C14.0624 40.5078 14.2063 40.476 14.3384 40.4146L26.5836 34.7266L38.8288 40.4146C39.4916 40.7222 40.25 40.2386 40.25 39.5082V11.3932C40.25 11.2026 40.1956 11.0159 40.093 10.8551C39.9905 10.6944 39.8441 10.5663 39.6712 10.486L38.3792 9.88522L38.7836 9.19641C38.8756 9.02961 38.9488 8.85201 39.0116 8.67041C39.3007 7.96427 39.4496 7.20862 39.45 6.44559C39.45 3.18278 36.7692 0.508759 33.4968 0.508759ZM33.4968 3.28998C35.2588 3.28998 36.66 4.68838 36.66 6.44559C36.66 8.20241 35.2588 9.59961 33.4968 9.59961C31.7348 9.59961 30.3336 8.20241 30.3336 6.44559C30.3336 4.68838 31.7348 3.28998 33.4968 3.28998ZM27.0304 6.8188L27.5812 7.0752C27.6882 8.07482 28.0497 9.03032 28.6312 9.85042L32.7704 17.0065C33.3504 17.7641 33.736 17.6201 34.218 16.9665L37.3608 11.6172L38.25 12.0308V37.941L27.1788 32.7982L27.0884 16.9277C27.2516 16.9629 27.4144 16.9969 27.578 17.0357L27.946 15.4792C27.658 15.4112 27.3689 15.3481 27.0788 15.29L27.0304 6.8188ZM25.8312 6.9604L25.8772 15.0948C25.4641 15.0383 25.0486 15.0008 24.632 14.9824L24.5728 16.5809C25.008 16.5969 25.4468 16.6441 25.8868 16.7081L25.9788 32.8018L14.5084 38.131L14.3608 12.2892L25.8312 6.9604ZM2.25 7.076L13.16 12.144L13.3084 38.123L2.25 32.9854V7.076ZM22.8672 15.0916C22.3164 15.1904 21.7528 15.3668 21.228 15.6721C20.6002 16.0355 20.0839 16.564 19.7352 17.2001L21.136 17.9729C21.3447 17.5928 21.6524 17.2764 22.0264 17.0573L22.0288 17.0557L22.0312 17.0541C22.354 16.8661 22.7384 16.7397 23.15 16.6661L22.8672 15.0916ZM29.5336 15.9041L29.0804 17.4377C30.0816 17.7337 31.0732 18.0737 32.0592 18.4417L32.6188 16.9425C31.606 16.5649 30.5788 16.2129 29.5336 15.9041ZM19.1328 18.9425L19.1208 19.0057L19.1196 19.0113C18.92 20.1437 18.9412 21.2581 18.986 22.3173L20.5844 22.2493C20.5408 21.2217 20.5316 20.2273 20.6952 19.2941L20.7048 19.2441L19.1328 18.9425ZM20.6796 23.8265L19.0836 23.9345C19.1556 25.0021 19.2324 26.0485 19.2296 27.0745L20.8296 27.0785C20.8328 25.9705 20.7516 24.8873 20.6796 23.8265ZM19.15 28.5825C19.106 28.9637 19.0404 29.3345 18.9444 29.6905L18.9436 29.6925L18.9428 29.6957C18.8028 30.2297 18.5672 30.7241 18.2384 31.1113L19.4572 32.1474C19.9724 31.5413 20.2992 30.8281 20.4892 30.1065L20.49 30.1041C20.61 29.6577 20.688 29.2081 20.7392 28.7641L19.15 28.5825ZM5.6428 30.1417L4.9244 31.5713C5.9164 32.0702 6.9424 32.4826 7.9756 32.8394L8.4976 31.3269C7.5156 30.9881 6.5568 30.6009 5.6428 30.1417ZM9.9772 31.7869L9.5516 33.3294C10.61 33.6218 11.698 33.8542 12.81 33.9794L12.9884 32.3894C11.98 32.2762 10.9744 32.0626 9.9772 31.7869ZM17.2336 31.8997C16.4368 32.3078 15.4748 32.4586 14.4856 32.4706L14.5056 34.0706C15.6392 34.057 16.8512 33.893 17.9624 33.3238L17.2336 31.8997Z"/>
</mask>
<path fill-rule="evenodd" clip-rule="evenodd" d="M33.4968 0.508759C30.7448 0.508759 28.4176 2.40277 27.7452 4.94559L27.0048 4.60158C26.8727 4.54018 26.7288 4.50836 26.5832 4.50836C26.4376 4.50836 26.2937 4.54018 26.1616 4.60158L13.9164 10.29L1.6712 4.60198C1.51883 4.53122 1.35109 4.49999 1.18347 4.51117C1.01584 4.52234 0.853736 4.57557 0.712112 4.66594C0.570487 4.7563 0.453911 4.88089 0.373146 5.0282C0.29238 5.17551 0.250028 5.34079 0.25 5.50879V33.6238C0.249956 33.8144 0.304418 34.0011 0.406967 34.1619C0.509516 34.3226 0.655877 34.4507 0.8288 34.531L13.4952 40.4146C13.6273 40.476 13.7712 40.5078 13.9168 40.5078C14.0624 40.5078 14.2063 40.476 14.3384 40.4146L26.5836 34.7266L38.8288 40.4146C39.4916 40.7222 40.25 40.2386 40.25 39.5082V11.3932C40.25 11.2026 40.1956 11.0159 40.093 10.8551C39.9905 10.6944 39.8441 10.5663 39.6712 10.486L38.3792 9.88522L38.7836 9.19641C38.8756 9.02961 38.9488 8.85201 39.0116 8.67041C39.3007 7.96427 39.4496 7.20862 39.45 6.44559C39.45 3.18278 36.7692 0.508759 33.4968 0.508759ZM33.4968 3.28998C35.2588 3.28998 36.66 4.68838 36.66 6.44559C36.66 8.20241 35.2588 9.59961 33.4968 9.59961C31.7348 9.59961 30.3336 8.20241 30.3336 6.44559C30.3336 4.68838 31.7348 3.28998 33.4968 3.28998ZM27.0304 6.8188L27.5812 7.0752C27.6882 8.07482 28.0497 9.03032 28.6312 9.85042L32.7704 17.0065C33.3504 17.7641 33.736 17.6201 34.218 16.9665L37.3608 11.6172L38.25 12.0308V37.941L27.1788 32.7982L27.0884 16.9277C27.2516 16.9629 27.4144 16.9969 27.578 17.0357L27.946 15.4792C27.658 15.4112 27.3689 15.3481 27.0788 15.29L27.0304 6.8188ZM25.8312 6.9604L25.8772 15.0948C25.4641 15.0383 25.0486 15.0008 24.632 14.9824L24.5728 16.5809C25.008 16.5969 25.4468 16.6441 25.8868 16.7081L25.9788 32.8018L14.5084 38.131L14.3608 12.2892L25.8312 6.9604ZM2.25 7.076L13.16 12.144L13.3084 38.123L2.25 32.9854V7.076ZM22.8672 15.0916C22.3164 15.1904 21.7528 15.3668 21.228 15.6721C20.6002 16.0355 20.0839 16.564 19.7352 17.2001L21.136 17.9729C21.3447 17.5928 21.6524 17.2764 22.0264 17.0573L22.0288 17.0557L22.0312 17.0541C22.354 16.8661 22.7384 16.7397 23.15 16.6661L22.8672 15.0916ZM29.5336 15.9041L29.0804 17.4377C30.0816 17.7337 31.0732 18.0737 32.0592 18.4417L32.6188 16.9425C31.606 16.5649 30.5788 16.2129 29.5336 15.9041ZM19.1328 18.9425L19.1208 19.0057L19.1196 19.0113C18.92 20.1437 18.9412 21.2581 18.986 22.3173L20.5844 22.2493C20.5408 21.2217 20.5316 20.2273 20.6952 19.2941L20.7048 19.2441L19.1328 18.9425ZM20.6796 23.8265L19.0836 23.9345C19.1556 25.0021 19.2324 26.0485 19.2296 27.0745L20.8296 27.0785C20.8328 25.9705 20.7516 24.8873 20.6796 23.8265ZM19.15 28.5825C19.106 28.9637 19.0404 29.3345 18.9444 29.6905L18.9436 29.6925L18.9428 29.6957C18.8028 30.2297 18.5672 30.7241 18.2384 31.1113L19.4572 32.1474C19.9724 31.5413 20.2992 30.8281 20.4892 30.1065L20.49 30.1041C20.61 29.6577 20.688 29.2081 20.7392 28.7641L19.15 28.5825ZM5.6428 30.1417L4.9244 31.5713C5.9164 32.0702 6.9424 32.4826 7.9756 32.8394L8.4976 31.3269C7.5156 30.9881 6.5568 30.6009 5.6428 30.1417ZM9.9772 31.7869L9.5516 33.3294C10.61 33.6218 11.698 33.8542 12.81 33.9794L12.9884 32.3894C11.98 32.2762 10.9744 32.0626 9.9772 31.7869ZM17.2336 31.8997C16.4368 32.3078 15.4748 32.4586 14.4856 32.4706L14.5056 34.0706C15.6392 34.057 16.8512 33.893 17.9624 33.3238L17.2336 31.8997Z" fill="#FF6D2B" stroke="white" stroke-width="0.5" mask="url(#path-1-inside-1_112_115)"/>
</svg>
