<?xml version="1.0" encoding="UTF-8"?>
<svg version="1.1" xmlns="http://www.w3.org/2000/svg" width="240" height="240">
<path d="M0 0 C79.2 0 158.4 0 240 0 C240 79.2 240 158.4 240 240 C160.8 240 81.6 240 0 240 C0 160.8 0 81.6 0 0 Z " fill="#32CBFE" transform="translate(0,0)"/>
<path d="M0 0 C2.51345091 2.19543807 4.86489814 4.46771807 7.1875 6.86328125 C8.24904297 7.92869141 8.24904297 7.92869141 9.33203125 9.015625 C21.5506287 21.93509802 27.625843 38.38618152 27.33203125 56.1484375 C26.53973055 71.03084245 21.63101901 85.28397745 12.1875 96.86328125 C11.67832031 97.54519531 11.16914063 98.22710937 10.64453125 98.9296875 C0.94905576 111.16274423 -15.47141031 119.93253383 -30.8125 121.86328125 C-35.52534226 122.08257156 -40.22095937 122.05392903 -44.9375 121.98828125 C-46.18015625 121.97925781 -47.4228125 121.97023437 -48.703125 121.9609375 C-51.73979004 121.93757854 -54.77603853 121.90482408 -57.8125 121.86328125 C-58.30278687 120.93986938 -58.30278687 120.93986938 -58.80297852 119.99780273 C-59.24053467 119.18899658 -59.67809082 118.38019043 -60.12890625 117.546875 C-60.77388062 116.34502563 -60.77388062 116.34502563 -61.43188477 115.11889648 C-64.02464049 110.88291591 -67.195495 108.58577285 -71.75 106.55078125 C-78.36812888 105.06507885 -83.86716902 105.69321219 -89.8125 108.86328125 C-92.29951892 110.71441465 -94.58325779 112.71066924 -96.8125 114.86328125 C-107.14301155 108.932075 -117.86471451 101.13902398 -122.8125 89.86328125 C-122.8125 88.87328125 -122.8125 87.88328125 -122.8125 86.86328125 C-121.203125 85.65234375 -121.203125 85.65234375 -119.0625 84.48828125 C-113.21009238 81.02440042 -110.66556265 77.40236874 -108.8125 70.86328125 C-108.51530453 67.79448851 -108.51530453 67.79448851 -108.5390625 64.609375 C-108.5184375 63.42408203 -108.4978125 62.23878906 -108.4765625 61.01757812 C-108.45080892 58.56712482 -108.43240941 56.11658162 -108.421875 53.66601562 C-108.05773981 34.92316845 -100.49452523 18.83400986 -87.5 5.48828125 C-63.74182133 -17.05152928 -26.35901738 -20.02553126 0 0 Z " fill="#FCFDFD" transform="translate(169.8125,57.13671875)"/>
<path d="M0 0 C16.62568971 12.63137424 27.69637862 30.53600819 30.84765625 51.26171875 C33.04110464 73.31806089 26.97727972 93.92941948 13.12890625 111.08984375 C4.68724381 120.51191043 4.68724381 120.51191043 -0.49609375 122.90234375 C-3.17412138 124.87096988 -3.17412138 124.87096988 -3.08984375 127.89453125 C-3.02639045 130.18413777 -2.94514457 132.47330874 -2.84765625 134.76171875 C-2.8818021 139.61042985 -4.02352116 143.16950143 -6.87109375 147.08984375 C-13.06341309 152.98313761 -18.32142996 154.50917283 -26.7890625 154.4375 C-32.6609129 153.77514932 -36.18274992 150.77818758 -40.24609375 146.71484375 C-41.87109375 144.08984375 -41.87109375 144.08984375 -43.87109375 137.08984375 C-49.81109375 137.08984375 -55.75109375 137.08984375 -61.87109375 137.08984375 C-62.22171875 138.45109375 -62.57234375 139.81234375 -62.93359375 141.21484375 C-64.63952722 146.34881416 -67.31018109 149.25090832 -71.87109375 152.08984375 C-77.70802218 154.86071842 -83.90953627 155.16163498 -90.15234375 153.47265625 C-96.22264629 150.83440938 -99.95678949 145.91845227 -102.87109375 140.08984375 C-102.94143144 138.2160477 -102.95539595 136.33983273 -102.93359375 134.46484375 C-102.92457031 133.46195313 -102.91554687 132.4590625 -102.90625 131.42578125 C-102.89464844 130.65492188 -102.88304687 129.8840625 -102.87109375 129.08984375 C-103.67546875 128.90421875 -104.47984375 128.71859375 -105.30859375 128.52734375 C-110.22305121 126.54431706 -113.81597139 123.44776963 -117.87109375 120.08984375 C-118.48210937 119.62578125 -119.093125 119.16171875 -119.72265625 118.68359375 C-127.95892978 112.2149223 -135.89011498 101.77417744 -137.24609375 91.15234375 C-136.87109375 89.08984375 -136.87109375 89.08984375 -134.87109375 87.08984375 C-132.98390625 86.68765625 -132.98390625 86.68765625 -131.05859375 86.27734375 C-126.79614985 85.3008566 -124.64439067 83.53545507 -121.87109375 80.08984375 C-120.89256424 77.15425523 -120.72033293 75.13826094 -120.66015625 72.07421875 C-119.96974111 45.7105887 -114.96118895 24.24099398 -95.58227539 5.27099609 C-68.99251951 -19.54500167 -29.37347755 -19.54235445 0 0 Z M-98.09375 19.70703125 C-101.21941622 23.89748486 -103.58976059 28.39817347 -105.87109375 33.08984375 C-106.26296875 33.88777344 -106.65484375 34.68570313 -107.05859375 35.5078125 C-112.07319123 46.21914022 -112.221294 56.14140902 -112.34960938 67.82421875 C-112.66666345 82.23857949 -112.66666345 82.23857949 -117.5546875 88.11328125 C-118.13347656 88.55929688 -118.71226563 89.0053125 -119.30859375 89.46484375 C-120.17291016 90.15707031 -120.17291016 90.15707031 -121.0546875 90.86328125 C-122.92761474 92.12801061 -124.82782801 93.12883525 -126.87109375 94.08984375 C-125.71898434 102.50910482 -118.22154965 109.78363108 -111.87109375 115.08984375 C-108.28346481 117.56088994 -104.61439081 119.86281891 -100.87109375 122.08984375 C-100.45859375 121.69152344 -100.04609375 121.29320312 -99.62109375 120.8828125 C-94.32022631 116.01973991 -89.58714894 113.56279623 -82.43359375 112.65234375 C-76.46929797 113.38480113 -71.03045634 115.34719983 -66.99609375 119.96484375 C-64.98486116 122.92253874 -63.43533824 125.88090792 -61.87109375 129.08984375 C-57.64206384 129.17845026 -53.41327882 129.2307662 -49.18359375 129.27734375 C-48.00474609 129.30248047 -46.82589844 129.32761719 -45.61132812 129.35351562 C-26.10159843 129.51386957 -9.89333446 122.59357717 4.12890625 109.08984375 C15.033347 97.55849264 22.08644912 81.98731496 23.12890625 66.08984375 C23.18046875 65.37054688 23.23203125 64.65125 23.28515625 63.91015625 C24.02612596 45.07717606 16.58774538 28.03973459 3.99438477 14.38037109 C-8.8558317 1.09865678 -25.76085117 -5.86644975 -44.24609375 -6.22265625 C-65.7159807 -6.26765601 -84.23068991 3.43423679 -98.09375 19.70703125 Z " fill="#010303" transform="translate(173.87109375,49.91015625)"/>
<path d="M0 0 C2.78681697 1.11053608 3.64830819 2.61548094 5.328125 5.078125 C9.32015544 10.48113172 13.71233355 13.70619452 20.078125 15.828125 C27.56359076 16.57667158 33.63254524 15.82568659 40.078125 11.828125 C43.12480653 9.25537171 44.98783757 6.97484208 47.078125 3.578125 C49.078125 0.828125 49.078125 0.828125 51.703125 -0.171875 C52.486875 -0.171875 53.270625 -0.171875 54.078125 -0.171875 C56.078125 1.828125 56.078125 1.828125 56.265625 4.828125 C55.19702291 10.76756452 50.43036469 14.99478125 46.078125 18.828125 C37.31527096 24.36322273 28.35895505 26.28368216 18.078125 24.828125 C13.69776073 23.34813798 9.94966636 21.33923309 6.078125 18.828125 C5.45164062 18.42207031 4.82515625 18.01601562 4.1796875 17.59765625 C0.11899026 14.57789916 -2.90801122 10.44322949 -4.921875 5.828125 C-4.859375 2.890625 -4.859375 2.890625 -3.921875 0.828125 C-1.921875 -0.171875 -1.921875 -0.171875 0 0 Z " fill="#040404" transform="translate(111.921875,120.171875)"/>
<path d="M0 0 C2.99455648 2.04890706 3.83302657 3.50951555 5 6.9375 C5 10 5 10 3.5 12.8125 C0.28998618 15.62126209 -1.77384336 15.92453292 -6 16 C-8.64816011 15.21270916 -9.62884529 14.47719891 -11.3125 12.3125 C-12.32922829 8.89259577 -11.87281149 6.42890226 -11 3 C-7.92160879 -0.67038952 -4.56677188 -0.57084649 0 0 Z " fill="#040404" transform="translate(116,87)"/>
<path d="M0 0 C1.91015625 0.44140625 1.91015625 0.44140625 4.47265625 2.44140625 C6.13614172 5.9130281 6.2901088 7.90370923 5.578125 11.6328125 C4.91015625 13.44140625 4.91015625 13.44140625 2.78515625 15.50390625 C-0.9673701 16.72755615 -3.29979705 16.494197 -7.08984375 15.44140625 C-9.90957306 13.07647199 -10.06835206 11.61333975 -10.52734375 7.94140625 C-10.08984375 4.44140625 -10.08984375 4.44140625 -8.58984375 2.00390625 C-5.55948152 0.10992985 -3.53178361 -0.20464541 0 0 Z " fill="#040404" transform="translate(165.08984375,86.55859375)"/>
</svg>
