<svg width="56" height="56" viewBox="0 0 56 56" fill="none" xmlns="http://www.w3.org/2000/svg">
<path d="M0 8C0 3.58172 3.58172 0 8 0H48C52.4183 0 56 3.58172 56 8V48C56 52.4183 52.4183 56 48 56H8C3.58172 56 0 52.4183 0 48V8Z" fill="#9BE39C" fill-opacity="0.5"/>
<path d="M28.0008 15.75C20.0341 15.75 13.5508 22.2333 13.5508 30.2C13.5508 38.1667 20.0341 44.6667 28.0008 44.6667C35.9674 44.6667 42.4508 38.1833 42.4508 30.2167C42.4508 22.25 35.9674 15.75 28.0008 15.75ZM29.2508 29.6667C29.2508 30.35 28.6841 30.9167 28.0008 30.9167C27.3174 30.9167 26.7508 30.35 26.7508 29.6667V21.3333C26.7508 20.65 27.3174 20.0833 28.0008 20.0833C28.6841 20.0833 29.2508 20.65 29.2508 21.3333V29.6667Z" fill="#08A70A"/>
<path d="M32.8158 13.7497H23.1824C22.5158 13.7497 21.9824 13.2163 21.9824 12.5497C21.9824 11.883 22.5158 11.333 23.1824 11.333H32.8158C33.4824 11.333 34.0158 11.8663 34.0158 12.533C34.0158 13.1997 33.4824 13.7497 32.8158 13.7497Z" fill="#08A70A"/>
</svg>
