<svg width="56" height="56" viewBox="0 0 56 56" fill="none" xmlns="http://www.w3.org/2000/svg">
<path d="M0 8C0 3.58172 3.58172 0 8 0H48C52.4183 0 56 3.58172 56 8V48C56 52.4183 52.4183 56 48 56H8C3.58172 56 0 52.4183 0 48V8Z" fill="#9BE39C" fill-opacity="0.5"/>
<path d="M37.3335 16.8505L27.9168 11.7838C26.9168 11.2505 25.7335 11.2505 24.7335 11.7838L15.3335 16.8505C14.6501 17.2338 14.2168 17.9671 14.2168 18.7671C14.2168 19.5838 14.6335 20.3171 15.3335 20.6838L24.7501 25.7505C25.2501 26.0171 25.8001 26.1505 26.3335 26.1505C26.8668 26.1505 27.4335 26.0171 27.9168 25.7505L37.3335 20.6838C38.0168 20.3171 38.4501 19.5838 38.4501 18.7671C38.4501 17.9671 38.0168 17.2338 37.3335 16.8505Z" fill="#08A70A"/>
<path d="M23.2007 27.5173L14.4507 23.1506C13.7673 22.8006 13.0007 22.8506 12.3507 23.234C11.7173 23.634 11.334 24.3173 11.334 25.0673V33.334C11.334 34.7673 12.134 36.0506 13.4173 36.7006L22.1673 41.0673C22.4673 41.2173 22.8007 41.3006 23.134 41.3006C23.5173 41.3006 23.9173 41.184 24.2673 40.984C24.9007 40.584 25.284 39.9006 25.284 39.1506V30.884C25.2673 29.4506 24.4673 28.1673 23.2007 27.5173Z" fill="#08A70A"/>
<path d="M41.3337 25.0673V29.1673C40.5337 28.934 39.6837 28.834 38.8337 28.834C36.5671 28.834 34.3504 29.6173 32.6004 31.0173C30.2004 32.9006 28.8337 35.7506 28.8337 38.834C28.8337 39.6506 28.9337 40.4673 29.1504 41.2506C28.9004 41.2173 28.6504 41.1173 28.4171 40.9673C27.7837 40.584 27.4004 39.9006 27.4004 39.1506V30.884C27.4004 29.4506 28.2004 28.1673 29.4671 27.5173L38.2171 23.1506C38.9004 22.8006 39.6671 22.8506 40.3171 23.234C40.9504 23.634 41.3337 24.3173 41.3337 25.0673Z" fill="#08A70A"/>
<path d="M44.634 34.1162C43.2673 32.4329 41.184 31.3662 38.834 31.3662C37.0673 31.3662 35.434 31.9829 34.1507 33.0162C32.4173 34.3829 31.334 36.4995 31.334 38.8662C31.334 40.2662 31.734 41.5995 32.4173 42.7329C32.8673 43.4829 33.434 44.1329 34.1007 44.6662H34.1173C35.4007 45.7329 37.0507 46.3662 38.834 46.3662C40.734 46.3662 42.4506 45.6662 43.7673 44.4995C44.3506 43.9995 44.8507 43.3995 45.2507 42.7329C45.934 41.5995 46.334 40.2662 46.334 38.8662C46.334 37.0662 45.7006 35.3995 44.634 34.1162ZM42.6007 37.9329L38.6007 41.6329C38.3673 41.8495 38.0507 41.9662 37.7507 41.9662C37.434 41.9662 37.1173 41.8495 36.8673 41.5995L35.0173 39.7495C34.534 39.2662 34.534 38.4662 35.0173 37.9829C35.5006 37.4995 36.3007 37.4995 36.784 37.9829L37.784 38.9829L40.9007 36.0995C41.4007 35.6329 42.2006 35.6662 42.6673 36.1662C43.1506 36.6829 43.1173 37.4662 42.6007 37.9329Z" fill="#08A70A"/>
</svg>
