<svg width="57" height="56" viewBox="0 0 57 56" fill="none" xmlns="http://www.w3.org/2000/svg">
<path d="M0.400391 8C0.400391 3.58172 3.98211 0 8.40039 0H48.4004C52.8187 0 56.4004 3.58172 56.4004 8V48C56.4004 52.4183 52.8187 56 48.4004 56H8.40039C3.98211 56 0.400391 52.4183 0.400391 48V8Z" fill="#9BE39C" fill-opacity="0.5"/>
<path d="M16.7331 33C15.0331 33 13.4664 33.65 12.2831 34.7167C12.0164 34.95 11.7664 35.2 11.5497 35.4833C10.6164 36.6333 10.0664 38.0833 10.0664 39.6667C10.0664 43.35 13.0664 46.3333 16.7331 46.3333C18.3331 46.3333 19.7831 45.7667 20.9331 44.85C21.8664 44.0667 22.5997 43.05 22.9997 41.8833C23.2664 41.2 23.3997 40.45 23.3997 39.6667C23.3997 36 20.4164 33 16.7331 33ZM20.7331 38.3833C20.7331 38.85 20.3664 39.2 19.9164 39.2C19.4664 39.2 19.0997 38.85 19.0997 38.3833V38.2167C19.0997 38.0333 18.9664 37.8833 18.7831 37.8833H15.4497C15.6164 38.2 15.5831 38.5833 15.3164 38.85C15.1664 39 14.9664 39.0833 14.7331 39.0833C14.5331 39.0833 14.3164 39 14.1664 38.85L12.9664 37.65C12.8997 37.5833 12.8331 37.4833 12.7831 37.3833C12.7164 37.1833 12.7164 36.9667 12.7831 36.7667C12.8331 36.6833 12.8831 36.5667 12.9664 36.5L14.1664 35.3167C14.4831 34.9833 14.9997 34.9833 15.2997 35.3167C15.5664 35.5667 15.5997 35.9667 15.4331 36.2667H18.7831C19.8497 36.2667 20.7164 37.1333 20.7164 38.2167V38.3833H20.7331ZM18.7331 44.2667C18.5164 44.2667 18.2997 44.2 18.1497 44.0333C17.8831 43.7833 17.8497 43.3833 18.0164 43.0833H14.6664C13.5997 43.0833 12.7331 42.2167 12.7331 41.1333V40.9667C12.7331 40.5 13.0997 40.15 13.5497 40.15C13.9997 40.15 14.3664 40.5 14.3664 40.9667V41.1333C14.3664 41.3167 14.4997 41.4667 14.6831 41.4667H18.0331C17.8664 41.15 17.8997 40.7667 18.1664 40.5C18.4831 40.1833 18.9997 40.1833 19.2997 40.5L20.4997 41.7C20.5664 41.7667 20.6331 41.8667 20.6831 41.9667C20.7497 42.1667 20.7497 42.3833 20.6831 42.5833C20.6331 42.6667 20.5664 42.7667 20.4997 42.8333L19.2997 44.0167C19.1497 44.1833 18.9331 44.2667 18.7331 44.2667Z" fill="#08A70A"/>
<path d="M33.1497 14.5837V20.917H30.6497V14.5837C30.6497 14.1337 30.2497 13.917 29.9831 13.917C29.8997 13.917 29.8164 13.9337 29.7331 13.967L16.5164 18.9503C15.6331 19.2837 15.0664 20.117 15.0664 21.067V22.1837C13.5497 23.317 12.5664 25.1337 12.5664 27.1837V21.067C12.5664 19.0837 13.7831 17.317 15.6331 16.617L28.8664 11.617C29.2331 11.4837 29.6164 11.417 29.9831 11.417C31.6497 11.417 33.1497 12.767 33.1497 14.5837Z" fill="#08A70A"/>
<path d="M44.2342 32.1663V33.833C44.2342 34.283 43.8842 34.6497 43.4175 34.6663H40.9842C40.1008 34.6663 39.3009 34.0163 39.2342 33.1497C39.1842 32.633 39.3842 32.1497 39.7175 31.8163C40.0175 31.4997 40.4342 31.333 40.8842 31.333H43.4009C43.8842 31.3497 44.2342 31.7163 44.2342 32.1663Z" fill="#08A70A"/>
<path d="M40.8664 29.5837H42.5664C43.4831 29.5837 44.2331 28.8337 44.2331 27.917V27.1837C44.2331 23.7337 41.4164 20.917 37.9664 20.917H18.8331C17.4164 20.917 16.1164 21.3837 15.0664 22.1837C13.5497 23.317 12.5664 25.1337 12.5664 27.1837V30.1503C12.5664 30.7837 13.2331 31.1837 13.8331 30.9837C14.7664 30.667 15.7497 30.5003 16.7331 30.5003C21.7831 30.5003 25.8997 34.617 25.8997 39.667C25.8997 40.867 25.5831 42.1837 25.0831 43.3503C24.8164 43.9503 25.2331 44.667 25.8831 44.667H37.9664C41.4164 44.667 44.2331 41.8503 44.2331 38.4003V38.0837C44.2331 37.167 43.4831 36.417 42.5664 36.417H41.1164C39.5164 36.417 37.9831 35.4337 37.5664 33.8837C37.2331 32.617 37.6331 31.3837 38.4664 30.5837C39.0831 29.9503 39.9331 29.5837 40.8664 29.5837ZM31.7331 29.2503H23.3997C22.7164 29.2503 22.1497 28.6837 22.1497 28.0003C22.1497 27.317 22.7164 26.7503 23.3997 26.7503H31.7331C32.4164 26.7503 32.9831 27.317 32.9831 28.0003C32.9831 28.6837 32.4164 29.2503 31.7331 29.2503Z" fill="#08A70A"/>
</svg>
