<svg width="56" height="56" viewBox="0 0 56 56" fill="none" xmlns="http://www.w3.org/2000/svg">
<path d="M0 8C0 3.58172 3.58172 0 8 0H48C52.4183 0 56 3.58172 56 8V48C56 52.4183 52.4183 56 48 56H8C3.58172 56 0 52.4183 0 48V8Z" fill="#9BE39C" fill-opacity="0.5"/>
<path d="M41.6832 21.0337L28.8499 28.4671C28.3332 28.7671 27.6832 28.7671 27.1499 28.4671L14.3165 21.0337C13.3999 20.5004 13.1665 19.2504 13.8665 18.4671C14.3499 17.9171 14.8999 17.4671 15.4832 17.1504L24.5165 12.1504C26.4499 11.0671 29.5832 11.0671 31.5165 12.1504L40.5499 17.1504C41.1332 17.4671 41.6832 17.9337 42.1665 18.4671C42.8332 19.2504 42.5999 20.5004 41.6832 21.0337Z" fill="#08A70A"/>
<path d="M27.0501 31.5671V42.9338C27.0501 44.2005 25.7668 45.0338 24.6335 44.4838C21.2001 42.8005 15.4168 39.6505 15.4168 39.6505C13.3835 38.5005 11.7168 35.6005 11.7168 33.2171V24.6171C11.7168 23.3005 13.1001 22.4671 14.2335 23.1171L26.2168 30.0671C26.7168 30.3838 27.0501 30.9505 27.0501 31.5671Z" fill="#08A70A"/>
<path d="M28.9502 31.5671V42.9338C28.9502 44.2005 30.2335 45.0338 31.3669 44.4838C34.8002 42.8005 40.5835 39.6505 40.5835 39.6505C42.6169 38.5005 44.2835 35.6005 44.2835 33.2171V24.6171C44.2835 23.3005 42.9002 22.4671 41.7669 23.1171L29.7835 30.0671C29.2835 30.3838 28.9502 30.9505 28.9502 31.5671Z" fill="#08A70A"/>
</svg>
