<svg width="153" height="24" viewBox="0 0 153 24" fill="none" xmlns="http://www.w3.org/2000/svg">
<path d="M14.2743 1.73301L16.3861 5.99145C16.6741 6.58424 17.442 7.15284 18.0899 7.26172L21.9175 7.90291C24.3652 8.31423 24.9412 10.1047 23.1773 11.871L20.2017 14.8713C19.6977 15.3794 19.4218 16.3593 19.5777 17.061L20.4297 20.775C21.1016 23.7148 19.5538 24.852 16.974 23.3155L13.3864 21.1742C12.7385 20.7871 11.6706 20.7871 11.0107 21.1742L7.42309 23.3155C4.85538 24.852 3.29555 23.7027 3.96747 20.775L4.81938 17.061C4.97536 16.3593 4.69939 15.3794 4.19545 14.8713L1.21978 11.871C-0.532028 10.1047 0.0319099 8.31423 2.47964 7.90291L6.30722 7.26172C6.94315 7.15284 7.71106 6.58424 7.99903 5.99145L10.1108 1.73301C11.2627 -0.577671 13.1345 -0.577671 14.2743 1.73301Z" fill="#F79009"/>
<path d="M46.2743 1.73301L48.3861 5.99145C48.6741 6.58424 49.442 7.15284 50.0899 7.26172L53.9175 7.90291C56.3652 8.31423 56.9412 10.1047 55.1773 11.871L52.2017 14.8713C51.6977 15.3794 51.4218 16.3593 51.5777 17.061L52.4297 20.775C53.1016 23.7148 51.5538 24.852 48.974 23.3155L45.3864 21.1742C44.7385 20.7871 43.6706 20.7871 43.0107 21.1742L39.4231 23.3155C36.8554 24.852 35.2955 23.7027 35.9675 20.775L36.8194 17.061C36.9754 16.3593 36.6994 15.3794 36.1954 14.8713L33.2198 11.871C31.468 10.1047 32.0319 8.31423 34.4796 7.90291L38.3072 7.26172C38.9431 7.15284 39.7111 6.58424 39.999 5.99145L42.1108 1.73301C43.2627 -0.577671 45.1345 -0.577671 46.2743 1.73301Z" fill="#F79009"/>
<path d="M78.2743 1.73301L80.3861 5.99145C80.6741 6.58424 81.442 7.15284 82.0899 7.26172L85.9175 7.90291C88.3652 8.31423 88.9412 10.1047 87.1773 11.871L84.2017 14.8713C83.6977 15.3794 83.4218 16.3593 83.5777 17.061L84.4297 20.775C85.1016 23.7148 83.5538 24.852 80.974 23.3155L77.3864 21.1742C76.7385 20.7871 75.6706 20.7871 75.0107 21.1742L71.4231 23.3155C68.8554 24.852 67.2955 23.7027 67.9675 20.775L68.8194 17.061C68.9754 16.3593 68.6994 15.3794 68.1954 14.8713L65.2198 11.871C63.468 10.1047 64.0319 8.31423 66.4796 7.90291L70.3072 7.26172C70.9431 7.15284 71.7111 6.58424 71.999 5.99145L74.1108 1.73301C75.2627 -0.577671 77.1345 -0.577671 78.2743 1.73301Z" fill="#F79009"/>
<path d="M110.274 1.73301L112.386 5.99145C112.674 6.58424 113.442 7.15284 114.09 7.26172L117.917 7.90291C120.365 8.31423 120.941 10.1047 119.177 11.871L116.202 14.8713C115.698 15.3794 115.422 16.3593 115.578 17.061L116.43 20.775C117.102 23.7148 115.554 24.852 112.974 23.3155L109.386 21.1742C108.739 20.7871 107.671 20.7871 107.011 21.1742L103.423 23.3155C100.855 24.852 99.2955 23.7027 99.9675 20.775L100.819 17.061C100.975 16.3593 100.699 15.3794 100.195 14.8713L97.2198 11.871C95.468 10.1047 96.0319 8.31423 98.4796 7.90291L102.307 7.26172C102.943 7.15284 103.711 6.58424 103.999 5.99145L106.111 1.73301C107.263 -0.577671 109.134 -0.577671 110.274 1.73301Z" fill="#F79009"/>
<path d="M142.274 1.73301L144.386 5.99145C144.674 6.58424 145.442 7.15284 146.09 7.26172L149.917 7.90291C152.365 8.31423 152.941 10.1047 151.177 11.871L148.202 14.8713C147.698 15.3794 147.422 16.3593 147.578 17.061L148.43 20.775C149.102 23.7148 147.554 24.852 144.974 23.3155L141.386 21.1742C140.739 20.7871 139.671 20.7871 139.011 21.1742L135.423 23.3155C132.855 24.852 131.296 23.7027 131.967 20.775L132.819 17.061C132.975 16.3593 132.699 15.3794 132.195 14.8713L129.22 11.871C127.468 10.1047 128.032 8.31423 130.48 7.90291L134.307 7.26172C134.943 7.15284 135.711 6.58424 135.999 5.99145L138.111 1.73301C139.263 -0.577671 141.134 -0.577671 142.274 1.73301Z" fill="#E2E4EB"/>
</svg>
