<svg width="57" height="56" viewBox="0 0 57 56" fill="none" xmlns="http://www.w3.org/2000/svg">
<path d="M0.601562 8C0.601562 3.58172 4.18328 0 8.60156 0H48.6016C53.0198 0 56.6016 3.58172 56.6016 8V48C56.6016 52.4183 53.0198 56 48.6016 56H8.60156C4.18328 56 0.601562 52.4183 0.601562 48V8Z" fill="#9BE39C" fill-opacity="0.5"/>
<path d="M33.3509 14.5837V20.917H30.8509V14.5837C30.8509 14.1337 30.4509 13.917 30.1842 13.917C30.1009 13.917 30.0176 13.9337 29.9342 13.967L16.7176 18.9503C15.8342 19.2837 15.2676 20.117 15.2676 21.067V22.1837C13.7509 23.317 12.7676 25.1337 12.7676 27.1837V21.067C12.7676 19.0837 13.9842 17.317 15.8342 16.617L29.0676 11.617C29.4342 11.4837 29.8176 11.417 30.1842 11.417C31.8509 11.417 33.3509 12.767 33.3509 14.5837Z" fill="#08A70A"/>
<path d="M44.4354 32.1663V33.833C44.4354 34.283 44.0854 34.6497 43.6187 34.6663H41.1854C40.302 34.6663 39.502 34.0163 39.4354 33.1497C39.3854 32.633 39.5854 32.1497 39.9187 31.8163C40.2187 31.4997 40.6354 31.333 41.0854 31.333H43.602C44.0854 31.3497 44.4354 31.7163 44.4354 32.1663Z" fill="#08A70A"/>
<path d="M41.0676 29.5837H42.7676C43.6842 29.5837 44.4342 28.8337 44.4342 27.917V27.1837C44.4342 23.7337 41.6176 20.917 38.1676 20.917H19.0342C17.6176 20.917 16.3176 21.3837 15.2676 22.1837C13.7509 23.317 12.7676 25.1337 12.7676 27.1837V38.4003C12.7676 41.8503 15.5842 44.667 19.0342 44.667H38.1676C41.6176 44.667 44.4342 41.8503 44.4342 38.4003V38.0837C44.4342 37.167 43.6842 36.417 42.7676 36.417H41.3176C39.7176 36.417 38.1842 35.4337 37.7676 33.8837C37.4176 32.617 37.8342 31.4003 38.6676 30.5837C39.2842 29.9503 40.1342 29.5837 41.0676 29.5837ZM31.9342 29.2503H20.2676C19.5842 29.2503 19.0176 28.6837 19.0176 28.0003C19.0176 27.317 19.5842 26.7503 20.2676 26.7503H31.9342C32.6176 26.7503 33.1842 27.317 33.1842 28.0003C33.1842 28.6837 32.6176 29.2503 31.9342 29.2503Z" fill="#08A70A"/>
</svg>
