<svg width="57" height="56" viewBox="0 0 57 56" fill="none" xmlns="http://www.w3.org/2000/svg">
<path d="M0.800781 8C0.800781 3.58172 4.3825 0 8.80078 0H48.8008C53.2191 0 56.8008 3.58172 56.8008 8V48C56.8008 52.4183 53.2191 56 48.8008 56H8.80078C4.3825 56 0.800781 52.4183 0.800781 48V8Z" fill="#9BE39C" fill-opacity="0.5"/>
<path d="M33.6165 13.7497H23.9832C23.3165 13.7497 22.7832 13.2163 22.7832 12.5497C22.7832 11.883 23.3165 11.333 23.9832 11.333H33.6165C34.2832 11.333 34.8165 11.8663 34.8165 12.533C34.8165 13.1997 34.2832 13.7497 33.6165 13.7497Z" fill="#08A70A"/>
<path d="M42.0841 33H37.1841C35.0674 33 33.8008 34.2667 33.8008 36.3833V41.2833C33.8008 43.4 35.0674 44.6667 37.1841 44.6667H42.0841C44.2008 44.6667 45.4674 43.4 45.4674 41.2833V36.3833C45.4674 34.2667 44.2008 33 42.0841 33ZM41.6174 40.4333L39.6508 41.5667C39.2508 41.8 38.8508 41.9167 38.4841 41.9167C38.2008 41.9167 37.9508 41.85 37.7174 41.7167C37.1841 41.4 36.8841 40.7833 36.8841 39.9667V37.7C36.8841 36.8833 37.1841 36.2667 37.7174 35.95C38.2508 35.6333 38.9341 35.7 39.6508 36.1L41.6174 37.2333C42.3174 37.65 42.7174 38.2167 42.7174 38.8333C42.7174 39.45 42.3341 40.0167 41.6174 40.4333Z" fill="#08A70A"/>
<path d="M32.1349 41.2833V36.3833C32.1349 33.3667 34.1682 31.3333 37.1849 31.3333H42.0849C42.4682 31.3333 42.8349 31.3667 43.1849 31.4333C43.2182 31.0333 43.2516 30.6333 43.2516 30.2167C43.2516 22.2333 36.7682 15.75 28.8016 15.75C20.8349 15.75 14.3516 22.2333 14.3516 30.2167C14.3516 38.1833 20.8349 44.6667 28.8016 44.6667C30.2182 44.6667 31.5682 44.4333 32.8682 44.0667C32.4016 43.2833 32.1349 42.35 32.1349 41.2833ZM30.0516 29.6667C30.0516 30.35 29.4849 30.9167 28.8016 30.9167C28.1182 30.9167 27.5516 30.35 27.5516 29.6667V21.3333C27.5516 20.65 28.1182 20.0833 28.8016 20.0833C29.4849 20.0833 30.0516 20.65 30.0516 21.3333V29.6667Z" fill="#08A70A"/>
</svg>
