<svg width="56" height="56" viewBox="0 0 56 56" fill="none" xmlns="http://www.w3.org/2000/svg">
<path d="M0 8C0 3.58172 3.58172 0 8 0H48C52.4183 0 56 3.58172 56 8V48C56 52.4183 52.4183 56 48 56H8C3.58172 56 0 52.4183 0 48V8Z" fill="#9BE39C" fill-opacity="0.5"/>
<path d="M37.3335 16.8505L27.9168 11.7838C26.9168 11.2505 25.7335 11.2505 24.7335 11.7838L15.3335 16.8505C14.6501 17.2338 14.2168 17.9671 14.2168 18.7671C14.2168 19.5838 14.6335 20.3171 15.3335 20.6838L24.7501 25.7505C25.2501 26.0171 25.8001 26.1505 26.3335 26.1505C26.8668 26.1505 27.4335 26.0171 27.9168 25.7505L37.3335 20.6838C38.0168 20.3171 38.4501 19.5838 38.4501 18.7671C38.4501 17.9671 38.0168 17.2338 37.3335 16.8505Z" fill="#08A70A"/>
<path d="M23.2007 27.5173L14.4507 23.1506C13.7673 22.8006 13.0007 22.8506 12.3507 23.234C11.7173 23.634 11.334 24.3173 11.334 25.0673V33.334C11.334 34.7673 12.134 36.0506 13.4173 36.7006L22.1673 41.0673C22.4673 41.2173 22.8007 41.3006 23.134 41.3006C23.5173 41.3006 23.9173 41.184 24.2673 40.984C24.9007 40.584 25.284 39.9006 25.284 39.1506V30.884C25.2673 29.4506 24.4673 28.1673 23.2007 27.5173Z" fill="#08A70A"/>
<path d="M41.3337 25.0673V29.1673C40.5337 28.934 39.6837 28.834 38.8337 28.834C36.5671 28.834 34.3504 29.6173 32.6004 31.0173C30.2004 32.9006 28.8337 35.7506 28.8337 38.834C28.8337 39.6506 28.9337 40.4673 29.1504 41.2506C28.9004 41.2173 28.6504 41.1173 28.4171 40.9673C27.7837 40.584 27.4004 39.9006 27.4004 39.1506V30.884C27.4004 29.4506 28.2004 28.1673 29.4671 27.5173L38.2171 23.1506C38.9004 22.8006 39.6671 22.8506 40.3171 23.234C40.9504 23.634 41.3337 24.3173 41.3337 25.0673Z" fill="#08A70A"/>
<path d="M44.634 34.083C43.2673 32.3997 41.184 31.333 38.834 31.333C37.0673 31.333 35.434 31.9497 34.1507 32.983C32.4173 34.3497 31.334 36.4663 31.334 38.833C31.334 41.183 32.4007 43.2663 34.084 44.633C35.3673 45.6997 37.034 46.333 38.834 46.333C40.734 46.333 42.4506 45.6163 43.784 44.4663C45.334 43.083 46.334 41.083 46.334 38.833C46.334 37.033 45.7006 35.3663 44.634 34.083ZM40.5507 39.2997C40.5507 39.733 40.3173 40.1497 39.9507 40.3663L37.6007 41.7663C37.4007 41.883 37.184 41.9497 36.9507 41.9497C36.534 41.9497 36.1173 41.733 35.884 41.3497C35.534 40.7497 35.7173 39.983 36.3173 39.633L38.0507 38.5997V36.4997C38.0507 35.8163 38.6173 35.2497 39.3007 35.2497C39.984 35.2497 40.5507 35.8163 40.5507 36.4997V39.2997Z" fill="#08A70A"/>
</svg>
