<svg width="57" height="56" viewBox="0 0 57 56" fill="none" xmlns="http://www.w3.org/2000/svg">
<path d="M0.201172 8C0.201172 3.58172 3.78289 0 8.20117 0H48.2012C52.6194 0 56.2012 3.58172 56.2012 8V48C56.2012 52.4183 52.6194 56 48.2012 56H8.20117C3.78289 56 0.201172 52.4183 0.201172 48V8Z" fill="#9BE39C" fill-opacity="0.5"/>
<path d="M44.8685 27.9997C44.8685 18.8163 37.3852 11.333 28.2018 11.333C19.0185 11.333 11.5352 18.8163 11.5352 27.9997C11.5352 32.833 13.6185 37.183 16.9185 40.233C16.9185 40.2497 16.9185 40.2497 16.9018 40.2663C17.0685 40.433 17.2685 40.5663 17.4352 40.7163C17.5352 40.7997 17.6185 40.883 17.7185 40.9497C18.0185 41.1997 18.3518 41.433 18.6685 41.6663C18.7852 41.7497 18.8852 41.8163 19.0018 41.8997C19.3185 42.1163 19.6518 42.3163 20.0018 42.4997C20.1185 42.5663 20.2518 42.6497 20.3685 42.7163C20.7018 42.8997 21.0518 43.0663 21.4185 43.2163C21.5518 43.283 21.6852 43.3497 21.8185 43.3997C22.1852 43.5497 22.5518 43.683 22.9185 43.7997C23.0518 43.8497 23.1852 43.8997 23.3185 43.933C23.7185 44.0497 24.1185 44.1497 24.5185 44.2497C24.6352 44.283 24.7518 44.3163 24.8852 44.333C25.3518 44.433 25.8185 44.4997 26.3018 44.5497C26.3685 44.5497 26.4352 44.5663 26.5018 44.583C27.0685 44.633 27.6352 44.6663 28.2018 44.6663C28.7685 44.6663 29.3352 44.633 29.8852 44.583C29.9518 44.583 30.0185 44.5663 30.0852 44.5497C30.5685 44.4997 31.0352 44.433 31.5018 44.333C31.6185 44.3163 31.7352 44.2663 31.8685 44.2497C32.2685 44.1497 32.6852 44.0663 33.0685 43.933C33.2018 43.883 33.3352 43.833 33.4685 43.7997C33.8352 43.6663 34.2185 43.5497 34.5685 43.3997C34.7018 43.3497 34.8352 43.283 34.9685 43.2163C35.3185 43.0663 35.6685 42.8997 36.0185 42.7163C36.1518 42.6497 36.2685 42.5663 36.3852 42.4997C36.7185 42.2997 37.0518 42.1163 37.3852 41.8997C37.5018 41.833 37.6018 41.7497 37.7185 41.6663C38.0518 41.433 38.3685 41.1997 38.6685 40.9497C38.7685 40.8663 38.8518 40.783 38.9518 40.7163C39.1352 40.5663 39.3185 40.4163 39.4852 40.2663C39.4852 40.2497 39.4852 40.2497 39.4685 40.233C42.7852 37.183 44.8685 32.833 44.8685 27.9997ZM36.4352 36.283C31.9185 33.2497 24.5185 33.2497 19.9685 36.283C19.2352 36.7663 18.6352 37.333 18.1352 37.9497C15.6018 35.383 14.0352 31.8663 14.0352 27.9997C14.0352 20.183 20.3852 13.833 28.2018 13.833C36.0185 13.833 42.3685 20.183 42.3685 27.9997C42.3685 31.8663 40.8018 35.383 38.2685 37.9497C37.7852 37.333 37.1685 36.7663 36.4352 36.283Z" fill="#08A70A"/>
<path d="M28.2012 19.5498C24.7512 19.5498 21.9512 22.3498 21.9512 25.7998C21.9512 29.1831 24.6012 31.9331 28.1178 32.0331C28.1678 32.0331 28.2345 32.0331 28.2678 32.0331C28.3012 32.0331 28.3512 32.0331 28.3845 32.0331C28.4012 32.0331 28.4178 32.0331 28.4178 32.0331C31.7845 31.9165 34.4345 29.1831 34.4512 25.7998C34.4512 22.3498 31.6512 19.5498 28.2012 19.5498Z" fill="#08A70A"/>
</svg>
