<svg width="20" height="21" viewBox="0 0 20 21" fill="none" xmlns="http://www.w3.org/2000/svg">
<path d="M18.3327 7.99961V12.9996C18.3327 15.0829 17.916 16.5413 16.9827 17.4829L11.666 12.1663L18.1077 5.72461C18.2577 6.38294 18.3327 7.13294 18.3327 7.99961Z" stroke="#4F5463" stroke-width="1.5" stroke-linecap="round" stroke-linejoin="round"/>
<path d="M18.1077 5.72435L5.22434 18.6077C2.71601 18.0327 1.66602 16.2993 1.66602 12.9993V7.99935C1.66602 3.83268 3.33268 2.16602 7.49935 2.16602H12.4993C15.7993 2.16602 17.5327 3.21602 18.1077 5.72435Z" stroke="#4F5463" stroke-width="1.5" stroke-linecap="round" stroke-linejoin="round"/>
<path d="M16.983 17.4827C16.0413 18.416 14.583 18.8327 12.4996 18.8327H7.49962C6.63295 18.8327 5.88294 18.7577 5.22461 18.6077L11.6663 12.166L16.983 17.4827Z" stroke="#4F5463" stroke-width="1.5" stroke-linecap="round" stroke-linejoin="round"/>
<path d="M5.19973 7.14961C5.7664 4.70794 9.43307 4.70794 9.99974 7.14961C10.3247 8.58294 9.42473 9.79961 8.63306 10.5496C8.05806 11.0996 7.14974 11.0996 6.56641 10.5496C5.77474 9.79961 4.8664 8.58294 5.19973 7.14961Z" stroke="#4F5463" stroke-width="1.5"/>
<path d="M7.57811 7.75065H7.58559" stroke="#4F5463" stroke-width="2" stroke-linecap="round" stroke-linejoin="round"/>
</svg>
