<svg width="20" height="20" viewBox="0 0 20 20" fill="none" xmlns="http://www.w3.org/2000/svg">
<path d="M5.83268 1.66667H4.99935C2.49935 1.66667 1.66602 3.15833 1.66602 5V5.83333V17.5C1.66602 18.1917 2.44935 18.5833 2.99935 18.1667L4.42435 17.1C4.75768 16.85 5.22435 16.8833 5.52435 17.1833L6.90768 18.575C7.23268 18.9 7.76602 18.9 8.09102 18.575L9.49102 17.175C9.78268 16.8833 10.2493 16.85 10.5743 17.1L11.9993 18.1667C12.5493 18.575 13.3327 18.1833 13.3327 17.5V3.33333C13.3327 2.41667 14.0827 1.66667 14.9993 1.66667H5.83268ZM4.97435 11.675C4.51602 11.675 4.14102 11.3 4.14102 10.8417C4.14102 10.3833 4.51602 10.0083 4.97435 10.0083C5.43268 10.0083 5.80768 10.3833 5.80768 10.8417C5.80768 11.3 5.43268 11.675 4.97435 11.675ZM4.97435 8.34167C4.51602 8.34167 4.14102 7.96667 4.14102 7.50834C4.14102 7.05 4.51602 6.675 4.97435 6.675C5.43268 6.675 5.80768 7.05 5.80768 7.50834C5.80768 7.96667 5.43268 8.34167 4.97435 8.34167ZM9.99935 11.4667H7.49935C7.15768 11.4667 6.87435 11.1833 6.87435 10.8417C6.87435 10.5 7.15768 10.2167 7.49935 10.2167H9.99935C10.341 10.2167 10.6243 10.5 10.6243 10.8417C10.6243 11.1833 10.341 11.4667 9.99935 11.4667ZM9.99935 8.13334H7.49935C7.15768 8.13334 6.87435 7.85 6.87435 7.50834C6.87435 7.16667 7.15768 6.88334 7.49935 6.88334H9.99935C10.341 6.88334 10.6243 7.16667 10.6243 7.50834C10.6243 7.85 10.341 8.13334 9.99935 8.13334Z" fill="#08A70A"/>
<path d="M15.009 1.66667V2.91667C15.559 2.91667 16.084 3.14167 16.4673 3.51667C16.8673 3.925 17.084 4.45 17.084 5V7.01667C17.084 7.63334 16.809 7.91667 16.184 7.91667H14.584V3.34167C14.584 3.10833 14.7757 2.91667 15.009 2.91667V1.66667ZM15.009 1.66667C14.084 1.66667 13.334 2.41667 13.334 3.34167V9.16667H16.184C17.5007 9.16667 18.334 8.33333 18.334 7.01667V5C18.334 4.08333 17.959 3.25 17.359 2.64167C16.7507 2.04167 15.9257 1.675 15.009 1.66667C15.0173 1.66667 15.009 1.66667 15.009 1.66667Z" fill="#08A70A"/>
</svg>
