<svg width="64" height="64" viewBox="0 0 64 64" fill="none" xmlns="http://www.w3.org/2000/svg">
<path d="M52.0271 15.6007L36.1871 6.45398C33.6004 4.96065 30.4004 4.96065 27.7871 6.45398L11.9738 15.6007C9.38711 17.094 7.78711 19.8673 7.78711 22.8807V41.1207C7.78711 44.1073 9.38711 46.8806 11.9738 48.4007L27.8138 57.5473C30.4004 59.0407 33.6004 59.0407 36.2138 57.5473L52.0538 48.4007C54.6404 46.9073 56.2404 44.134 56.2404 41.1207V22.8807C56.2138 19.8673 54.6138 17.1207 52.0271 15.6007ZM32.0004 19.574C35.4404 19.574 38.2138 22.3473 38.2138 25.7873C38.2138 29.2273 35.4404 32.0007 32.0004 32.0007C28.5604 32.0007 25.7871 29.2273 25.7871 25.7873C25.7871 22.374 28.5604 19.574 32.0004 19.574ZM39.1471 44.4273H24.8538C22.6938 44.4273 21.4404 42.0273 22.6404 40.2407C24.4538 37.5473 27.9738 35.734 32.0004 35.734C36.0271 35.734 39.5471 37.5473 41.3604 40.2407C42.5604 42.0007 41.2804 44.4273 39.1471 44.4273Z" fill="#069D6E"/>
</svg>
